<svg xmlns="http://www.w3.org/2000/svg"><symbol viewBox="0 0 24 24" id="arrow_right" xmlns="http://www.w3.org/2000/svg"><path d="M8.59 16.34l4.58-4.59-4.58-4.59L10 5.75l6 6-6 6z"/></symbol><symbol class="bsvg-inline--fa bfa-briefcase bfa-w-16" viewBox="0 0 512 512" id="briefcase" xmlns="http://www.w3.org/2000/svg"><path d="M320 336c0 8.84-7.16 16-16 16h-96c-8.84 0-16-7.16-16-16v-48H0v144c0 25.6 22.4 48 48 48h416c25.6 0 48-22.4 48-48V288H320v48zm144-208h-80V80c0-25.6-22.4-48-48-48H176c-25.6 0-48 22.4-48 48v48H48c-25.6 0-48 22.4-48 48v80h512v-80c0-25.6-22.4-48-48-48zm-144 0H192V96h128v32z"/></symbol><symbol class="csvg-inline--fa cfa-play-circle cfa-w-16" viewBox="0 0 512 512" id="play-circle" xmlns="http://www.w3.org/2000/svg"><path d="M256 8C119 8 8 119 8 256s111 248 248 248 248-111 248-248S393 8 256 8zm115.7 272l-176 101c-15.8 8.8-35.7-2.5-35.7-21V152c0-18.4 19.8-29.8 35.7-21l176 107c16.4 9.2 16.4 32.9 0 42z"/></symbol><symbol class="dsvg-inline--fa dfa-robot dfa-w-20" viewBox="0 0 640 512" id="robot" xmlns="http://www.w3.org/2000/svg"><path d="M32 224h32v192H32a31.962 31.962 0 01-32-32V256a31.962 31.962 0 0132-32zm512-48v272a64.063 64.063 0 01-64 64H160a64.063 64.063 0 01-64-64V176a79.974 79.974 0 0180-80h112V32a32 32 0 0164 0v64h112a79.974 79.974 0 0180 80zm-280 80a40 40 0 10-40 40 39.997 39.997 0 0040-40zm-8 128h-64v32h64zm96 0h-64v32h64zm104-128a40 40 0 10-40 40 39.997 39.997 0 0040-40zm-8 128h-64v32h64zm192-128v128a31.962 31.962 0 01-32 32h-32V224h32a31.962 31.962 0 0132 32z"/></symbol><symbol class="esvg-inline--fa efa-sync-alt efa-w-16" viewBox="0 0 512 512" id="sync-alt" xmlns="http://www.w3.org/2000/svg"><path d="M370.72 133.28C339.458 104.008 298.888 87.962 255.848 88c-77.458.068-144.328 53.178-162.791 126.85-1.344 5.363-6.122 9.15-11.651 9.15H24.103c-7.498 0-13.194-6.807-11.807-14.176C33.933 94.924 134.813 8 256 8c66.448 0 126.791 26.136 171.315 68.685L463.03 40.97C478.149 25.851 504 36.559 504 57.941V192c0 13.255-10.745 24-24 24H345.941c-21.382 0-32.09-25.851-16.971-40.971l41.75-41.749zM32 296h134.059c21.382 0 32.09 25.851 16.971 40.971l-41.75 41.75c31.262 29.273 71.835 45.319 114.876 45.28 77.418-.07 144.315-53.144 162.787-126.849 1.344-5.363 6.122-9.15 11.651-9.15h57.304c7.498 0 13.194 6.807 11.807 14.176C478.067 417.076 377.187 504 256 504c-66.448 0-126.791-26.136-171.315-68.685L48.97 471.03C33.851 486.149 8 475.441 8 454.059V320c0-13.255 10.745-24 24-24z"/></symbol></svg>